<svg width="108" height="26" fill="none" xmlns="http://www.w3.org/2000/svg"><g clip-path="url(#clip0_1305_2915)" fill="#02BAE9"><path d="M13.285 0c-.422 0-.843.012-1.253.054-.122.012-.245.024-.367.054a6.47 6.47 0 00-.886.131c-.123.012-.245.042-.367.066-.3.066-.6.144-.899.227-.098.024-.177.054-.275.078-1.198.371-2.33.904-3.35 1.586-.025.012-.055.041-.08.053-.165.12-.465.335-.465.347C2.11 4.966 0 8.734 0 13c0 2.746.868 5.288 2.354 7.376a.808.808 0 01.244-.131 9.853 9.853 0 01-.067-1.13c0-5.81 4.83-10.524 10.754-10.524 1.345 0 2.61.251 3.797.694.446 1.16.71 2.399.71 3.703 0 5.821-4.819 10.523-10.755 10.523-.397 0-.789-.012-1.168-.066a.78.78 0 01-.134.24C7.875 25.15 10.473 26 13.29 26c4.329 0 8.156-2.04 10.602-5.169.122-.143.232-.305.342-.466a1.19 1.19 0 00.11-.162c.465-.664.868-1.388 1.198-2.142v-.012a12.9 12.9 0 00.41-1.095c.024-.095.055-.173.08-.25.079-.306.165-.6.232-.904.024-.12.055-.228.067-.335.067-.305.11-.598.147-.921.012-.096.024-.198.043-.306.042-.412.067-.825.067-1.238v-.012C26.583 5.821 20.622 0 13.285 0zm0 6.862c-5.105 0-9.5 3.01-11.445 7.31A10.6 10.6 0 011.773 13c0-1.986.532-3.847 1.455-5.474 2.507-4.41 8.578-5.223 11.953-1.4.287.335.574.694.819 1.065-.868-.197-1.767-.335-2.709-.335l-.006.006zm27.891-2.579c-4.102 0-6.664 2.046-6.847 5.468l-.012.24h4.646l.025-.198c.195-1.37 1.412-1.573 2.115-1.573 1.645 0 2.348.706 2.348 2.369v.562H41.03c-4.537 0-7.239 1.98-7.239 5.3s2.366 5.265 5.888 5.265c1.852 0 3.533-.622 4.463-1.621l.195 1.197H47.7V10.588c0-4.182-2.195-6.306-6.53-6.306h.006zm2.275 10.38v1.448c0 1.298-1.43 1.998-2.776 1.998-1.345 0-2.152-.604-2.152-1.663 0-1.556 1.614-1.783 2.574-1.783h2.354zm16.574-.353c0 1.472-.434 3.219-2.513 3.219-2.078 0-2.512-1.747-2.512-3.219V4.648h-4.427v9.662c0 4.577 2.593 7.31 6.94 7.31 4.346 0 6.97-2.733 6.97-7.31V4.648h-4.464v9.662h.006zm27.665 0c0 1.472-.434 3.219-2.513 3.219-2.078 0-2.512-1.747-2.512-3.219V4.648h-4.427v9.662c0 4.577 2.593 7.31 6.94 7.31 4.346 0 6.97-2.733 6.97-7.31V4.648h-4.464v9.662h.006zm14.276-3.32c-1.626-.515-3.033-.964-3.033-1.837 0-.736.746-1.209 1.902-1.209 1.375 0 2.078.61 2.146 1.861l.012.215h4.524l-.018-.245c-.245-3.494-2.678-5.492-6.67-5.492-3.993 0-6.524 1.855-6.524 4.84 0 3.35 3.192 4.433 5.753 5.3 1.761.593 3.277 1.107 3.277 2.148 0 .868-.819 1.388-2.182 1.388-2.201 0-2.483-1.382-2.5-1.974v-.221H93.98v.233c.074 2.848 2.354 5.72 7.282 5.72 4.096 0 6.737-2.023 6.737-5.146 0-3.667-3.344-4.726-6.034-5.581zM70.523 6.065l-.245-1.382H67.35v16.608h4.15V10.953c0-1.675.698-2.53 2.073-2.53H75.8v-3.83h-1.351c-1.828 0-3.094.473-3.925 1.472z"/></g><defs><clipPath id="clip0_1305_2915"><path fill="#fff" d="M0 0h108v26H0z"/></clipPath></defs></svg>