<?xml version="1.0" encoding="utf-8"?>
<!-- Generator: Adobe Illustrator 24.0.0, SVG Export Plug-In . SVG Version: 6.00 Build 0)  -->
<svg version="1.1" id="Слой_1" xmlns="http://www.w3.org/2000/svg" xmlns:xlink="http://www.w3.org/1999/xlink" x="0px" y="0px"
	 viewBox="0 0 140 70" style="enable-background:new 0 0 140 70;" xml:space="preserve">
<style type="text/css">
	.st0{fill:#FFFFFF;}
</style>
<g>
	<polygon class="st0" points="12.4,47 22.7,47 22.7,50.1 12.4,50.1 12.4,55.9 8.7,55.9 8.7,41.2 25.1,41.2 25.1,44.3 12.4,44.3 	"/>
	<path class="st0" d="M27.2,41.2H45v14.8H27.2V41.2z M30.9,52.8h10.4v-8.5H30.9V52.8z"/>
	<path class="st0" d="M51.2,55.9h-3.7V41.2h17.8v10.7h-1.7l1.7,4.1h-3.8l-1.9-4.1h-8.5V55.9z M61.7,44.3H51.2v4.4h10.4V44.3z"/>
	<polygon class="st0" points="82.1,52.8 82.1,49.8 68,49.8 68,41.2 85.8,41.2 85.8,44.3 71.7,44.3 71.7,46.6 85.8,46.6 85.8,55.9 
		68,55.9 68,52.8 	"/>
	<rect x="88.4" y="41.2" class="st0" width="3.7" height="14.8"/>
	<polygon class="st0" points="94.1,41.2 113.1,41.2 113.1,44.3 105.4,44.3 105.4,55.9 101.7,55.9 101.7,44.3 94.1,44.3 	"/>
	<rect x="115.2" y="47" class="st0" width="16.1" height="3.1"/>
	<rect x="115.2" y="52.8" class="st0" width="16.1" height="3.1"/>
	<rect x="115.2" y="41.2" class="st0" width="16.1" height="3.1"/>
	<g>
		<path class="st0" d="M15.5,66.8h-1.8v0.1c0,1-0.6,1.1-1.4,1.1c-1.4,0-1.4-0.6-1.4-1.8V65c0-1.1,0.1-1.6,1.4-1.6
			c0.4,0,1.4,0,1.4,0.9v0.1h1.8v-0.1c0-1.7-0.8-2.4-3-2.4c-2.3,0-3.4,0.4-3.4,2.7v2c0,2.6,1.3,2.8,3.4,2.8
			C14.9,69.4,15.5,68.8,15.5,66.8L15.5,66.8z"/>
		<path class="st0" d="M23.3,62h-2L20,65.2h-0.3L18.4,62h-1.9l2.5,5.4l0,0.1c-0.2,0.5-0.4,0.6-1.1,0.6c-0.2,0-0.4,0-0.5,0v1.3
			c0.2,0,0.5,0.1,0.9,0.1c1,0,1.6-0.5,2.2-1.6L23.3,62z"/>
		<polygon class="st0" points="30.9,69.3 30.9,62 24.5,62 24.5,69.3 26.2,69.3 26.2,63.4 29.2,63.4 29.2,69.3 		"/>
		<polygon class="st0" points="37.5,66.1 37.5,65 34.3,65 34.3,63.3 37.7,63.3 37.7,62 32.6,62 32.6,69.3 37.8,69.3 37.8,67.9 
			34.3,67.9 34.3,66.1 		"/>
		<path class="st0" d="M43.2,62h-3.7v7.3h1.7v-2.1h2c2,0,2.4-0.5,2.4-2.7C45.6,62.6,45,62,43.2,62z M42.7,65.8h-1.6v-2.5h1.6
			c0.9,0,1.1,0.4,1.1,1.2C43.8,65.6,43.6,65.8,42.7,65.8z"/>
		<polygon class="st0" points="51.7,69.3 53.9,69.3 51.1,65.6 53.6,62 51.6,62 49.6,64.8 48.8,64.8 48.8,62 47.1,62 47.1,69.3 
			48.8,69.3 48.8,66.3 49.6,66.3 		"/>
		<path class="st0" d="M61.6,64.5c0-2.2-1.3-2.6-3.4-2.6c-2.1,0-3.4,0.4-3.4,2.6v2.2c0,2.2,1.3,2.7,3.4,2.7c2,0,3.4-0.5,3.4-2.7
			V64.5z M59.8,66.5c0,1.3-0.5,1.5-1.6,1.5c-1.1,0-1.6-0.2-1.6-1.5v-1.7c0-1.3,0.5-1.4,1.6-1.4c1.1,0,1.6,0.1,1.6,1.4V66.5z"/>
		<polygon class="st0" points="70.4,69.3 72.1,69.3 72.1,62 69.1,62 67.7,66.8 67.4,66.8 65.9,62 63,62 63,69.3 64.7,69.3 
			64.7,63.2 66.8,69.3 68.3,69.3 70.4,63.1 		"/>
		<polygon class="st0" points="80.2,69.3 80.2,62 73.8,62 73.8,69.3 75.5,69.3 75.5,63.4 78.5,63.4 78.5,69.3 		"/>
		<path class="st0" d="M85.6,64.9h-2.1v-3h-1.7v7.3h3.8c1.5,0,2.2-0.7,2.2-2.2C87.8,65.6,87.2,64.9,85.6,64.9z M85.1,68h-1.6v-1.8
			h1.6c0.6,0,1,0.2,1,0.9C86.1,67.9,85.7,68,85.1,68z"/>
		<path class="st0" d="M99.2,64.5c0-2.2-1.3-2.6-3.4-2.6c-2.1,0-3.4,0.4-3.4,2.6v0.3H91V62h-1.7v7.3H91v-3h1.5v0.4
			c0,2.2,1.3,2.7,3.4,2.7c2,0,3.4-0.5,3.4-2.7V64.5z M97.5,66.5c0,1.3-0.5,1.5-1.6,1.5c-1.1,0-1.6-0.2-1.6-1.5v-1.7
			c0-1.2,0.5-1.4,1.6-1.4c1.1,0,1.6,0.1,1.6,1.4V66.5z"/>
		<polygon class="st0" points="106.1,62 100.2,62 100.2,63.4 102.3,63.4 102.3,69.3 104,69.3 104,63.4 106.1,63.4 		"/>
		<polygon class="st0" points="112.2,66.1 112.2,65 109,65 109,63.3 112.4,63.3 112.4,62 107.3,62 107.3,69.3 112.5,69.3 
			112.5,67.9 109,67.9 109,66.1 		"/>
		<path class="st0" d="M117.8,62h-3.7v7.3h1.7v-2.1h2c2,0,2.4-0.5,2.4-2.7C120.3,62.6,119.7,62,117.8,62z M117.4,65.8h-1.6v-2.5h1.6
			c0.9,0,1.1,0.4,1.1,1.2C118.5,65.6,118.3,65.8,117.4,65.8z"/>
		<g>
			<rect x="129.2" y="62" class="st0" width="1.7" height="7.3"/>
			<path class="st0" d="M125.5,64.9h-2.1v-3h-1.7v7.3h3.8c1.5,0,2.2-0.7,2.2-2.2C127.7,65.6,127.1,64.9,125.5,64.9z M125,68h-1.6
				v-1.8h1.6c0.6,0,1,0.2,1,0.9C126,67.9,125.6,68,125,68z"/>
		</g>
	</g>
	<path class="st0" d="M40.5,0.8l4.8,22c0,0,12.2,7.5,20.2,12.1v-3.7c-1.8-1.6-3.8-3.4-5.2-4.9c-5.6-6.3-8.4-19.5-8.4-21h15.9v4.6
		h4.5V5.3V0.8v0H40.5z"/>
	<rect x="62.9" y="16.3" class="st0" width="14.2" height="2.8"/>
	<rect x="62.9" y="21.4" class="st0" width="14.2" height="2.8"/>
	<rect x="62.9" y="11.2" class="st0" width="14.2" height="2.8"/>
	<path class="st0" d="M99.5,34.7l-4.8-22c0,0-12.2-7.5-20.2-12.1v3.7c1.8,1.6,3.8,3.4,5.2,4.9c5.6,6.3,8.4,19.5,8.4,21H72.3v-4.6
		h-4.5v4.6v4.5v0H99.5z"/>
</g>
</svg>
