<?xml version="1.0" encoding="UTF-8" standalone="no"?>
<!-- Created with Inkscape (http://www.inkscape.org/) -->

<svg
   version="1.1"
   id="svg2"
   width="592.44934"
   height="315.60266"
   viewBox="0 0 592.44934 315.60266"
   sodipodi:docname="logo_RB_CMYK.ai"
   xmlns:inkscape="http://www.inkscape.org/namespaces/inkscape"
   xmlns:sodipodi="http://sodipodi.sourceforge.net/DTD/sodipodi-0.dtd"
   xmlns="http://www.w3.org/2000/svg"
   xmlns:svg="http://www.w3.org/2000/svg">
  <defs
     id="defs6">
    <clipPath
       clipPathUnits="userSpaceOnUse"
       id="clipPath16">
      <path
         d="M 0,236.702 H 444.337 V 0 H 0 Z"
         id="path14" />
    </clipPath>
  </defs>
  <sodipodi:namedview
     id="namedview4"
     pagecolor="#ffffff"
     bordercolor="#000000"
     borderopacity="0.25"
     inkscape:showpageshadow="2"
     inkscape:pageopacity="0.0"
     inkscape:pagecheckerboard="0"
     inkscape:deskcolor="#d1d1d1" />
  <g
     id="g8"
     inkscape:groupmode="layer"
     inkscape:label="logo_RB_CMYK"
     transform="matrix(1.3333333,0,0,-1.3333333,0,315.60267)">
    <g
       id="g10">
      <g
         id="g12"
         clip-path="url(#clipPath16)">
        <g
           id="g18"
           transform="translate(76.0727,86.4493)">
          <path
             d="m 0,0 c 0,5.831 4.073,10.037 9.717,10.037 4.233,0 7.96,-2.875 8.892,-6.816 L 16.24,2.902 C 15.547,5.804 12.805,7.907 9.717,7.907 5.457,7.907 2.422,4.579 2.422,0 c 0,-4.605 3.062,-7.933 7.295,-7.933 3.035,0 5.777,2.049 6.549,4.818 l 2.316,-0.452 C 17.651,-7.321 13.924,-10.063 9.717,-10.063 4.073,-10.063 -0.026,-5.83 0,0"
             style="fill:#231f20;fill-opacity:1;fill-rule:nonzero;stroke:none"
             id="path20" />
        </g>
        <g
           id="g22"
           transform="translate(128.5717,86.4493)">
          <path
             d="m 0,0 c 0,4.606 -3.195,7.907 -7.694,7.907 -4.499,0 -7.72,-3.301 -7.72,-7.907 0,-4.605 3.221,-7.933 7.72,-7.933 C -3.195,-7.933 0,-4.605 0,0 m -17.837,0 c 0,5.857 4.206,10.037 10.143,10.037 5.937,0 10.143,-4.18 10.143,-10.037 0,-5.91 -4.206,-10.063 -10.143,-10.063 -5.937,0 -10.143,4.153 -10.143,10.063"
             style="fill:#231f20;fill-opacity:1;fill-rule:nonzero;stroke:none"
             id="path24" />
        </g>
        <g
           id="g26"
           transform="translate(148.3254,95.8203)">
          <path
             d="m 0,0 h 3.834 l 6.203,-15.387 h 0.239 L 16.506,0 h 3.807 V -18.768 H 17.89 V -3.061 H 17.651 L 11.314,-18.768 H 8.999 l -6.31,15.68 h -0.24 v -15.68 H 0 Z"
             style="fill:#231f20;fill-opacity:1;fill-rule:nonzero;stroke:none"
             id="path28" />
        </g>
        <g
           id="g30"
           transform="translate(194.4883,86.4763)">
          <path
             d="M 0,0 C 2.715,0 4.339,1.411 4.339,3.594 4.339,5.804 2.715,7.215 0,7.215 H -5.111 V 0 Z M -7.481,9.344 H 0 c 4.1,0 6.762,-2.156 6.735,-5.75 0,-3.541 -2.741,-5.75 -6.735,-5.75 h -5.111 v -7.268 h -2.37 z"
             style="fill:#231f20;fill-opacity:1;fill-rule:nonzero;stroke:none"
             id="path32" />
        </g>
        <g
           id="g34"
           transform="translate(217.9156,84.2664)">
          <path
             d="M 0,0 V 11.554 H 2.449 V 0 c 0,-3.354 2.21,-5.75 5.271,-5.75 3.062,0 5.245,2.396 5.245,5.75 v 11.554 h 2.422 V 0 c 0,-4.579 -3.194,-7.88 -7.667,-7.88 C 3.248,-7.88 0,-4.579 0,0"
             style="fill:#231f20;fill-opacity:1;fill-rule:nonzero;stroke:none"
             id="path36" />
        </g>
        <g
           id="g38"
           transform="translate(255.5325,93.6908)">
          <path
             d="M 0,0 H -6.203 V 2.13 H 8.652 V 0 H 2.423 V -16.639 H 0 Z"
             style="fill:#231f20;fill-opacity:1;fill-rule:nonzero;stroke:none"
             id="path40" />
        </g>
        <g
           id="g42"
           transform="translate(280.7439,95.8203)">
          <path
             d="M 0,0 H 12.885 V -2.13 H 2.449 v -5.857 h 9.371 v -2.129 H 2.449 v -6.522 h 10.702 v -2.13 l -13.151,0 z"
             style="fill:#231f20;fill-opacity:1;fill-rule:nonzero;stroke:none"
             id="path44" />
        </g>
        <g
           id="g46"
           transform="translate(319.1328,86.5292)">
          <path
             d="M 0,0 C 2.689,0 4.339,1.384 4.339,3.594 4.339,5.777 2.689,7.162 0,7.162 H -5.75 V 0 Z M -8.173,9.291 H 0 c 4.073,0 6.762,-2.236 6.762,-5.697 0,-3.194 -2.502,-5.431 -5.99,-5.59 H 0.453 L 7.268,-9.477 H 4.207 L -2.289,-2.13 H -5.75 v -7.347 h -2.423 z"
             style="fill:#231f20;fill-opacity:1;fill-rule:nonzero;stroke:none"
             id="path48" />
        </g>
        <g
           id="g50"
           transform="translate(342.1349,83.1485)">
          <path
             d="m 0,0 h 2.396 c 0.026,-2.902 2.076,-4.632 5.591,-4.632 3.061,0 4.845,1.331 4.845,3.434 0,2.582 -2.609,3.008 -5.431,3.461 -3.381,0.532 -7.109,1.411 -7.109,5.484 0,3.381 2.583,5.591 7.109,5.591 4.606,0 7.401,-2.396 7.427,-6.363 h -2.342 c 0,2.662 -1.864,4.233 -5.085,4.233 -3.035,0 -4.686,-1.304 -4.686,-3.328 0,-2.476 2.503,-2.928 5.272,-3.354 3.407,-0.559 7.268,-1.305 7.268,-5.565 0,-3.514 -2.689,-5.723 -7.295,-5.723 C 3.035,-6.762 0,-4.18 0,0"
             style="fill:#231f20;fill-opacity:1;fill-rule:nonzero;stroke:none"
             id="path52" />
        </g>
        <g
           id="g54"
           transform="translate(163.9195,109.0033)">
          <path
             d="M 0,0 H 37.276 C 57.451,0 74.734,15.179 82.025,36.76 H 0 Z"
             style="fill:#ed1c24;fill-opacity:1;fill-rule:nonzero;stroke:none"
             id="path56" />
        </g>
        <g
           id="g58"
           transform="translate(151.8843,160.6546)">
          <path
             d="M 0,0 H -78.519 V -7.915 H -4.067 C -2.382,-5.488 -1.003,-2.834 0,0"
             style="fill:#ed1c24;fill-opacity:1;fill-rule:nonzero;stroke:none"
             id="path60" />
        </g>
        <g
           id="g62"
           transform="translate(144.7647,145.7633)">
          <path
             d="m 0,0 h -71.399 v -36.76 h 25.052 v 26.093 h 13.201 L -17.304,-36.76 H 9.035 l -19.32,29.259 C -6.386,-5.672 -2.904,-3.11 0,0"
             style="fill:#ed1c24;fill-opacity:1;fill-rule:nonzero;stroke:none"
             id="path64" />
        </g>
        <g
           id="g66"
           transform="translate(163.9195,152.7398)">
          <path
             d="m 0,0 h 83.182 c 0.704,2.565 1.273,5.207 1.69,7.915 H 0 Z"
             style="fill:#ed1c24;fill-opacity:1;fill-rule:nonzero;stroke:none"
             id="path68" />
        </g>
        <g
           id="g70"
           transform="translate(257.9161,160.6546)">
          <path
             d="M 0,0 V -7.915 H 108.227 L 113.473,0 Z"
             style="fill:#ed1c24;fill-opacity:1;fill-rule:nonzero;stroke:none"
             id="path72" />
        </g>
        <g
           id="g74"
           transform="translate(257.9161,109.0033)">
          <path
             d="M 0,0 H 21.712 L 52.291,36.76 H 0 Z"
             style="fill:#ed1c24;fill-opacity:1;fill-rule:nonzero;stroke:none"
             id="path76" />
        </g>
        <g
           id="g78"
           transform="translate(316.8597,109.0033)">
          <path
             d="M 0,0 H 22.41 L 46.775,36.76 H -3.178 Z"
             style="fill:#ed1c24;fill-opacity:1;fill-rule:nonzero;stroke:none"
             id="path80" />
        </g>
      </g>
    </g>
  </g>
</svg>
