<?xml version="1.0" encoding="UTF-8"?>
<svg id="Layer_1" xmlns="http://www.w3.org/2000/svg" version="1.1" viewBox="0 0 160.1 27.4">
  <!-- Generator: Adobe Illustrator 29.0.1, SVG Export Plug-In . SVG Version: 2.1.0 Build 192)  -->
  <defs>
    <style>
      .st0 {
        fill: #3c6075;
      }
    </style>
  </defs>
  <path class="st0" d="M18.8.7c0-.3.3-.6.6-.6h4.3c.3,0,.6.3.6.6v26c0,.3-.3.6-.6.6h-4c-.5,0-.9-.2-1.1-.6L5.5,9.8v17c0,.3-.3.6-.6.6H.7c-.4,0-.6-.3-.7-.6V.7C0,.4.3.1.7.1h4c.5,0,.7.2,1.1.7l13.1,17.1V.7h0Z"/>
  <path class="st0" d="M57.8.1c.4,0,.6.3.7.6v3.9c0,.3-.3.6-.7.6h-14.2v5.9h12.1c.3,0,.6.3.6.6v3.9c0,.4-.3.6-.6.7h-12.1v6h14.2c.3,0,.6.3.7.6h0v3.9c0,.4-.3.6-.7.6h-19.3c-.3,0-.6-.3-.6-.6V.7c0-.3.3-.6.6-.6,0,0,19.3,0,19.3,0Z"/>
  <path class="st0" d="M87.5,17.1l5.9,9.2c.3.5.3,1.1-.3,1.1h-5c-.6,0-.9,0-1.2-.6l-5.3-8.8h-5.2v8.8c0,.3-.3.6-.6.6h-4.5c-.4,0-.6-.3-.7-.6V.7c0-.4.3-.6.7-.6h11.7c2.6,0,5.1.5,6.9,1.9,1.8,1.4,3.2,4,3.2,7,0,2.6-1.1,5-3,6.7-.7.6-1.5,1.1-2.4,1.5ZM76.4,5v8h5.6c1.5,0,2.7-.1,3.5-.7s1.7-1.7,1.7-3.3-.6-2.6-1.5-3.3c-.9-.6-2.1-.8-3.2-.7h-6.1Z"/>
  <path class="st0" d="M117.2.1c2.3,0,4.6.4,6.5,2,1.9,1.6,3.3,4.3,3.3,7.5s-1.4,6-3.6,7.7c-2.2,1.7-4.1,1.9-6.3,1.9h-6.2v7.6c0,.3-.3.6-.6.6h-4.5c-.4,0-.6-.3-.7-.6V.7c0-.4.3-.6.7-.6h11.3ZM119.5,6c-.9-.6-2-.8-3-.8h-5.4v9h5.3c1.1,0,2.2-.1,3.1-.7s1.8-1.9,1.8-3.8-.7-3-1.7-3.7h0Z"/>
  <path class="st0" d="M140.7,26.7c-.1.4-.6.7-1,.7h-4.5c-.4,0-.6-.2-.6-.5s0-.3,0-.4L144.1.6c.1-.5.4-.6.9-.6h4.8c.6,0,.8.2,1,.6l9.2,25.9c0,.1,0,.3,0,.4,0,.3-.1.5-.6.5h-4.6c-.5,0-.9-.2-1-.7l-1.6-4.8h-9.9l-1.6,4.8ZM147.4,7l-3.6,10.3h7.1l-3.5-10.3h0Z"/>
</svg>