<?xml version="1.0" encoding="UTF-8"?>
<svg id="_Слой_1" data-name="Слой_1" xmlns="http://www.w3.org/2000/svg" version="1.1" viewBox="0 0 463 532">
  <!-- Generator: Adobe Illustrator 29.1.0, SVG Export Plug-In . SVG Version: 2.1.0 Build 142)  -->
  <defs>
    <style>
      .st0 {
        fill: none;
      }

      .st0, .st1 {
        stroke: #3f3d56;
        stroke-miterlimit: 10;
      }

      .st2 {
        fill: #4285f4;
      }

      .st3 {
        fill: #f2f2f2;
      }

      .st1 {
        fill: #fff;
      }
    </style>
  </defs>
  <rect class="st2" x="22.56" y="42.52" width="180" height="24" rx="5.42" ry="5.42"/>
  <rect class="st1" x=".56" y=".52" width="462" height="531" rx="5.42" ry="5.42"/>
  <rect class="st0" x="27.56" y="35.52" width="180" height="24" rx="5.42" ry="5.42"/>
  <rect class="st3" x="46.06" y="123.52" width="361" height="12" rx="5.42" ry="5.42"/>
  <rect class="st3" x="46.56" y="161.52" width="361" height="12" rx="5.42" ry="5.42"/>
  <rect class="st3" x="47.06" y="199.52" width="361" height="12" rx="5.42" ry="5.42"/>
  <rect class="st0" x="51.06" y="118.52" width="361" height="12" rx="5.42" ry="5.42"/>
  <rect class="st0" x="51.56" y="156.52" width="361" height="12" rx="5.42" ry="5.42"/>
  <rect class="st0" x="52.06" y="194.52" width="361" height="12" rx="5.42" ry="5.42"/>
  <path class="st3" d="M289.19,308.52h-122.27c-2.69,0-4.87,2.18-4.87,4.87h0v16.27c0,2.69,2.18,4.87,4.87,4.87h6.63v82.63c0,2.69,2.18,4.87,4.87,4.87h92.27c2.69,0,4.87-2.18,4.87-4.87h0v-82.63h13.63c2.69,0,4.87-2.18,4.87-4.87h0v-16.27c0-2.69-2.18-4.87-4.87-4.87h0Z"/>
  <path class="st0" d="M183.56,329.52h102v79.06c0,5.22-4.23,9.44-9.44,9.44h-83.11c-5.22,0-9.44-4.23-9.44-9.44h0v-79.06h0Z"/>
  <rect class="st0" x="169.06" y="303.52" width="132" height="26" rx="7.69" ry="7.69"/>
  <rect class="st2" x="216.56" y="307.02" width="24.5" height="111"/>
  <rect class="st0" x="225.06" y="303.52" width="20" height="114"/>
  <path class="st2" d="M225.9,277.73c6.82,11.69,5,25.45,5,25.45,0,0-12.87-5.19-19.69-16.88s-9.06-23.08-5-25.45,12.87,5.19,19.69,16.88Z"/>
  <path class="st2" d="M241.91,277.73c-6.82,11.69-5,25.45-5,25.45,0,0,12.87-5.19,19.69-16.88s9.06-23.08,5-25.45-12.87,5.19-19.69,16.88Z"/>
  <path class="st0" d="M228.9,277.73c6.82,11.69,5,25.45,5,25.45,0,0-12.87-5.19-19.69-16.88s-9.06-23.08-5-25.45,12.87,5.19,19.69,16.88Z"/>
  <path class="st0" d="M238.91,277.73c-6.82,11.69-5,25.45-5,25.45,0,0,12.87-5.19,19.69-16.88s9.06-23.08,5-25.45-12.87,5.19-19.69,16.88Z"/>
</svg>